# xmcd
#
# Track frame offsets:
#	150
#	17367
#	33056
#	48267
#	67918
#	82606
#	94134
#	113884
#	133611
#	149341
#	165788
#	183589
#	197348
#	212281
#
# Disc length: 3085 seconds
#
# Revision: 1
# Processed by: cddbd v1.5.2PL0 Copyright (c) Steve Scherf et al.
# Submitted via: audiograbber 1.83.01
#
DISCID=9e0c0b0e
DTITLE=Adnan Koparan - Adnan Koparan - Rasgele (2006)
DYEAR=1900
DGENRE=
TTITLE0=Tak zilleri sindirellam
TTITLE1=Rasgele
TTITLE2=Hovarda
TTITLE3=Telli yazmalarýný oyaladýnmý
TTITLE4=Cennet
TTITLE5=Dam baþýndan hopla gel
TTITLE6=Türbanlým
TTITLE7=Kýz Meryem
TTITLE8=Oyalýda yazma baþýnda
TTITLE9=Sevdim seni bitanem
TTITLE10=Evlenme
TTITLE11=Hatçam çýkmýþ gül dalýna
TTITLE12=Kahveyi kavururlar
TTITLE13=Gelmezsen gelme
EXTD=
EXTT0=
EXTT1=
EXTT2=
EXTT3=
EXTT4=
EXTT5=
EXTT6=
EXTT7=
EXTT8=
EXTT9=
EXTT10=
EXTT11=
EXTT12=
EXTT13=
PLAYORDER=
